<svg width="64" height="64" viewBox="0 0 64 64" fill="none" xmlns="http://www.w3.org/2000/svg">
<path d="M61.3334 30V52.1667C61.3334 53.2712 60.438 54.1667 59.3334 54.1667H24.6668C23.5622 54.1667 22.6667 53.2712 22.6667 52.1667V30" fill="white"/>
<path d="M61.3334 30V52.1667C61.3334 53.2712 60.438 54.1667 59.3334 54.1667H24.6668C23.5622 54.1667 22.6667 53.2712 22.6667 52.1667V30" stroke="#343434" stroke-width="2" stroke-linecap="round" stroke-linejoin="round"/>
<path d="M23 30L61 30" stroke="#343434" stroke-width="2" stroke-linecap="round" stroke-linejoin="round"/>
<rect x="44" y="30" width="24" height="6" transform="rotate(90 44 30)" fill="#F5A8C6" stroke="#343434" stroke-width="2"/>
<path d="M25.4958 8.86248L9.33899 50.1469C8.93644 51.1755 9.44396 52.3357 10.4726 52.7382L18 55.6841C19.0286 56.0866 20.1888 55.5791 20.5913 54.5505L36.7481 13.2661C37.1507 12.2375 36.6431 11.0773 35.6145 10.6748L28.0871 7.7289C27.0585 7.32635 25.8983 7.83387 25.4958 8.86248Z" fill="white" stroke="#343434" stroke-width="2" stroke-linecap="round" stroke-linejoin="round"/>
<path d="M17.4174 29.5047L13.4541 39.6318C12.8702 41.1239 11.7174 42.323 10.2494 42.9652C8.78133 43.6074 7.11832 43.6401 5.62616 43.0561C4.13401 42.4722 2.93495 41.3194 2.29276 39.8513C1.65057 38.3833 1.61786 36.7203 2.20182 35.2281C5.28437 27.3515 17.4174 29.5047 17.4174 29.5047Z" fill="#F5A8C6" stroke="#343434" stroke-width="2" stroke-linecap="round" stroke-linejoin="round"/>
<path d="M17.4174 29.5047L21.3806 19.3776C21.9646 17.8854 21.9319 16.2224 21.2897 14.7544C20.6475 13.2863 19.4485 12.1335 17.9563 11.5496C16.4641 10.9656 14.8011 10.9983 13.3331 11.6405C11.8651 12.2827 10.7123 13.4818 10.1283 14.9739C7.04577 22.8505 17.4174 29.5047 17.4174 29.5047Z" fill="#F5A8C6" stroke="#343434" stroke-width="2" stroke-linecap="round" stroke-linejoin="round"/>
<rect x="18.5634" y="27.8693" width="11.3061" height="6" transform="rotate(22.6202 18.5634 27.8693)" fill="#F5A8C6" stroke="#343434" stroke-width="2"/>
<line x1="7" y1="56" x2="8" y2="56" stroke="#343434" stroke-width="2" stroke-linecap="round"/>
<line x1="62" y1="56" x2="63" y2="56" stroke="#343434" stroke-width="2" stroke-linecap="round"/>
<line x1="11" y1="56" x2="59" y2="56" stroke="#343434" stroke-width="2" stroke-linecap="round"/>
</svg>
