<svg width="64" height="64" viewBox="0 0 64 64" fill="none" xmlns="http://www.w3.org/2000/svg">
<path d="M49.3334 56C53.0153 56 56.0001 53.0152 56.0001 49.3333C56.0001 45.6514 53.0153 42.6666 49.3334 42.6666C45.6515 42.6666 42.6667 45.6514 42.6667 49.3333C42.6667 53.0152 45.6515 56 49.3334 56Z" stroke="#343434" stroke-width="2" stroke-linecap="round" stroke-linejoin="round"/>
<path d="M14.6667 56C18.3486 56 21.3333 53.0152 21.3333 49.3333C21.3333 45.6514 18.3486 42.6666 14.6667 42.6666C10.9848 42.6666 8 45.6514 8 49.3333C8 53.0152 10.9848 56 14.6667 56Z" stroke="#343434" stroke-width="2" stroke-linecap="round" stroke-linejoin="round"/>
<path d="M43 23C43 21.8954 43.8954 21 45 21H51.8123C52.3858 21 52.9317 21.2462 53.3114 21.6761L59.4991 28.6828C59.8219 29.0483 60 29.5191 60 30.0067V41C60 42.1046 59.1046 43 58 43H45C43.8954 43 43 42.1046 43 41V23Z" stroke="#343434" stroke-width="2" stroke-linecap="round" stroke-linejoin="round"/>
<path d="M40.6667 8H4.66675C3.56218 8 2.66675 8.89543 2.66675 10V40.6667C2.66675 41.7712 3.56218 42.6667 4.66675 42.6667H40.6667C41.7713 42.6667 42.6667 41.7712 42.6667 40.6667V10C42.6667 8.89543 41.7713 8 40.6667 8Z" fill="#F5A8C6" stroke="#343434" stroke-width="2" stroke-linecap="round" stroke-linejoin="round"/>
<path d="M26.4801 18.6667H37.5201L45.3334 26.48V37.52L37.5201 45.3334H26.4801L18.6667 37.52V26.48L26.4801 18.6667Z" fill="#B94040" stroke="#343434" stroke-width="2" stroke-linecap="round" stroke-linejoin="round"/>
<path d="M36 28L28 36" stroke="#343434" stroke-width="2" stroke-linecap="round" stroke-linejoin="round"/>
<path d="M28 28L36 36" stroke="#343434" stroke-width="2" stroke-linecap="round" stroke-linejoin="round"/>
<line x1="4" y1="58" x2="5" y2="58" stroke="#343434" stroke-width="2" stroke-linecap="round"/>
<line x1="59" y1="58" x2="60" y2="58" stroke="#343434" stroke-width="2" stroke-linecap="round"/>
<line x1="8" y1="58" x2="56" y2="58" stroke="#343434" stroke-width="2" stroke-linecap="round"/>
</svg>
