<svg width="64" height="64" viewBox="0 0 64 64" fill="none" xmlns="http://www.w3.org/2000/svg">
<path d="M53.3334 32V54.6667C53.3334 56.8758 51.5425 58.6667 49.3334 58.6667H14.6668C12.4576 58.6667 10.6667 56.8758 10.6667 54.6667V32" fill="white"/>
<path d="M53.3334 32V54.6667C53.3334 56.8758 51.5426 58.6667 49.3334 58.6667H14.6668C12.4576 58.6667 10.6667 56.8758 10.6667 54.6667V32" stroke="#343434" stroke-width="2" stroke-linecap="round" stroke-linejoin="round"/>
<path d="M56.6666 18.6666H7.33325C6.22868 18.6666 5.33325 19.5621 5.33325 20.6666V30C5.33325 31.1045 6.22868 32 7.33325 32H56.6666C57.7712 32 58.6666 31.1045 58.6666 30V20.6666C58.6666 19.5621 57.7712 18.6666 56.6666 18.6666Z" fill="white" stroke="#343434" stroke-width="2" stroke-linecap="round" stroke-linejoin="round"/>
<rect x="27.5862" y="18.7586" width="8.82759" height="39.7241" fill="#F5A8C6"/>
<path d="M36 58L36 19" stroke="#343434" stroke-width="2" stroke-linecap="round" stroke-linejoin="round"/>
<path d="M28 58L28 19" stroke="#343434" stroke-width="2" stroke-linecap="round" stroke-linejoin="round"/>
<path d="M31.9999 18.6667H19.9999C18.2318 18.6667 16.5361 17.9643 15.2859 16.7141C14.0356 15.4638 13.3333 13.7682 13.3333 12C13.3333 10.2319 14.0356 8.53624 15.2859 7.286C16.5361 6.03575 18.2318 5.33337 19.9999 5.33337C29.3333 5.33337 31.9999 18.6667 31.9999 18.6667Z" fill="#F5A8C6" stroke="#343434" stroke-width="2" stroke-linecap="round" stroke-linejoin="round"/>
<path d="M32 18.6667H44C45.7681 18.6667 47.4638 17.9643 48.714 16.7141C49.9643 15.4638 50.6667 13.7682 50.6667 12C50.6667 10.2319 49.9643 8.53624 48.714 7.286C47.4638 6.03575 45.7681 5.33337 44 5.33337C34.6667 5.33337 32 18.6667 32 18.6667Z" fill="#F5A8C6" stroke="#343434" stroke-width="2" stroke-linecap="round" stroke-linejoin="round"/>
<path d="M26.4801 18.6667H37.5201L45.3334 26.48V37.52L37.5201 45.3334H26.4801L18.6667 37.52V26.48L26.4801 18.6667Z" fill="#B94040" stroke="#343434" stroke-width="2" stroke-linecap="round" stroke-linejoin="round"/>
<path d="M36 28L28 36" stroke="#343434" stroke-width="2" stroke-linecap="round" stroke-linejoin="round"/>
<path d="M28 28L36 36" stroke="#343434" stroke-width="2" stroke-linecap="round" stroke-linejoin="round"/>
<line x1="4" y1="60" x2="5" y2="60" stroke="#343434" stroke-width="2" stroke-linecap="round"/>
<line x1="59" y1="60" x2="60" y2="60" stroke="#343434" stroke-width="2" stroke-linecap="round"/>
<line x1="8" y1="60" x2="56" y2="60" stroke="#343434" stroke-width="2" stroke-linecap="round"/>
</svg>
