<svg width="64" height="64" viewBox="0 0 64 64" fill="none" xmlns="http://www.w3.org/2000/svg">
<path d="M49.3333 56C53.0152 56 56 53.0152 56 49.3333C56 45.6514 53.0152 42.6666 49.3333 42.6666C45.6514 42.6666 42.6666 45.6514 42.6666 49.3333C42.6666 53.0152 45.6514 56 49.3333 56Z" stroke="#343434" stroke-width="2" stroke-linecap="round" stroke-linejoin="round"/>
<path d="M14.6667 56C18.3486 56 21.3333 53.0152 21.3333 49.3333C21.3333 45.6514 18.3486 42.6666 14.6667 42.6666C10.9848 42.6666 8 45.6514 8 49.3333C8 53.0152 10.9848 56 14.6667 56Z" stroke="#343434" stroke-width="2" stroke-linecap="round" stroke-linejoin="round"/>
<path d="M43 23C43 21.8954 43.8954 21 45 21H51.8123C52.3858 21 52.9317 21.2462 53.3114 21.6761L59.4991 28.6828C59.8219 29.0483 60 29.5191 60 30.0067V41C60 42.1046 59.1046 43 58 43H45C43.8954 43 43 42.1046 43 41V23Z" stroke="#343434" stroke-width="2" stroke-linecap="round" stroke-linejoin="round"/>
<path d="M40.6666 8H4.66663C3.56206 8 2.66663 8.89543 2.66663 10V40.6667C2.66663 41.7712 3.56206 42.6667 4.66663 42.6667H40.6666C41.7712 42.6667 42.6666 41.7712 42.6666 40.6667V10C42.6666 8.89543 41.7712 8 40.6666 8Z" fill="#F5A8C6" stroke="#343434" stroke-width="2" stroke-linecap="round" stroke-linejoin="round"/>
<line x1="7" y1="58" x2="55" y2="58" stroke="#343434" stroke-width="2" stroke-linecap="round"/>
<line x1="3" y1="58" x2="4" y2="58" stroke="#343434" stroke-width="2" stroke-linecap="round"/>
<line x1="58" y1="58" x2="59" y2="58" stroke="#343434" stroke-width="2" stroke-linecap="round"/>
<path d="M32 45.3333C39.3638 45.3333 45.3334 39.3638 45.3334 32C45.3334 24.6362 39.3638 18.6667 32 18.6667C24.6362 18.6667 18.6667 24.6362 18.6667 32C18.6667 39.3638 24.6362 45.3333 32 45.3333Z" fill="#E0DD95" stroke="#343434" stroke-width="2" stroke-linecap="round" stroke-linejoin="round"/>
<path d="M32 24V32L37.3333 34.6667" stroke="#343434" stroke-width="2" stroke-linecap="round" stroke-linejoin="round"/>
</svg>
