<svg width="28" height="144" viewBox="0 0 28 144" fill="none" xmlns="http://www.w3.org/2000/svg">
<path d="M15 4.5C15 4.22386 14.7761 4 14.5 4C14.2239 4 14 4.22386 14 4.5L15 4.5ZM14.5 143.387L17.3867 140.5L14.5 137.613L11.6132 140.5L14.5 143.387ZM14 6.92857C14 7.20471 14.2239 7.42857 14.5 7.42857C14.7761 7.42857 15 7.20471 15 6.92857L14 6.92857ZM15 11.7857C15 11.5096 14.7761 11.2857 14.5 11.2857C14.2239 11.2857 14 11.5096 14 11.7857L15 11.7857ZM14 16.6429C14 16.919 14.2239 17.1429 14.5 17.1429C14.7761 17.1429 15 16.919 15 16.6429L14 16.6429ZM15 21.5C15 21.2239 14.7761 21 14.5 21C14.2239 21 14 21.2239 14 21.5L15 21.5ZM14 26.3571C14 26.6333 14.2239 26.8571 14.5 26.8571C14.7761 26.8571 15 26.6333 15 26.3571L14 26.3571ZM15 31.2143C15 30.9381 14.7761 30.7143 14.5 30.7143C14.2239 30.7143 14 30.9381 14 31.2143L15 31.2143ZM14 36.0714C14 36.3476 14.2239 36.5714 14.5 36.5714C14.7761 36.5714 15 36.3476 15 36.0714L14 36.0714ZM15 40.9286C15 40.6524 14.7761 40.4286 14.5 40.4286C14.2239 40.4286 14 40.6524 14 40.9286L15 40.9286ZM14 45.7857C14 46.0619 14.2239 46.2857 14.5 46.2857C14.7761 46.2857 15 46.0619 15 45.7857L14 45.7857ZM15 50.6429C15 50.3667 14.7761 50.1429 14.5 50.1429C14.2239 50.1429 14 50.3667 14 50.6429L15 50.6429ZM14 55.5C14 55.7761 14.2239 56 14.5 56C14.7761 56 15 55.7761 15 55.5L14 55.5ZM15 60.3571C15 60.081 14.7761 59.8571 14.5 59.8571C14.2239 59.8571 14 60.081 14 60.3571L15 60.3571ZM14 65.2143C14 65.4904 14.2239 65.7143 14.5 65.7143C14.7761 65.7143 15 65.4904 15 65.2143L14 65.2143ZM15 70.0714C15 69.7953 14.7761 69.5714 14.5 69.5714C14.2239 69.5714 14 69.7953 14 70.0714L15 70.0714ZM14 74.9286C14 75.2047 14.2239 75.4286 14.5 75.4286C14.7761 75.4286 15 75.2047 15 74.9286L14 74.9286ZM15 79.7857C15 79.5096 14.7761 79.2857 14.5 79.2857C14.2239 79.2857 14 79.5096 14 79.7857L15 79.7857ZM14 84.6429C14 84.919 14.2239 85.1429 14.5 85.1429C14.7761 85.1429 15 84.919 15 84.6429L14 84.6429ZM15 89.5C15 89.2238 14.7761 89 14.5 89C14.2239 89 14 89.2238 14 89.5L15 89.5ZM14 94.3571C14 94.6333 14.2239 94.8571 14.5 94.8571C14.7761 94.8571 15 94.6333 15 94.3571L14 94.3571ZM15 99.2143C15 98.9381 14.7761 98.7143 14.5 98.7143C14.2239 98.7143 14 98.9381 14 99.2143L15 99.2143ZM14 104.071C14 104.348 14.2239 104.571 14.5 104.571C14.7761 104.571 15 104.348 15 104.071L14 104.071ZM15 108.929C15 108.652 14.7761 108.429 14.5 108.429C14.2239 108.429 14 108.652 14 108.929L15 108.929ZM14 113.786C14 114.062 14.2239 114.286 14.5 114.286C14.7761 114.286 15 114.062 15 113.786L14 113.786ZM15 118.643C15 118.367 14.7761 118.143 14.5 118.143C14.2239 118.143 14 118.367 14 118.643L15 118.643ZM14 123.5C14 123.776 14.2239 124 14.5 124C14.7761 124 15 123.776 15 123.5L14 123.5ZM15 128.357C15 128.081 14.7761 127.857 14.5 127.857C14.2239 127.857 14 128.081 14 128.357L15 128.357ZM14 133.214C14 133.49 14.2239 133.714 14.5 133.714C14.7761 133.714 15 133.49 15 133.214L14 133.214ZM15 138.071C15 137.795 14.7761 137.571 14.5 137.571C14.2239 137.571 14 137.795 14 138.071L15 138.071ZM14 4.5L14 6.92857L15 6.92857L15 4.5L14 4.5ZM14 11.7857L14 16.6429L15 16.6429L15 11.7857L14 11.7857ZM14 21.5L14 26.3571L15 26.3571L15 21.5L14 21.5ZM14 31.2143L14 36.0714L15 36.0714L15 31.2143L14 31.2143ZM14 40.9286L14 45.7857L15 45.7857L15 40.9286L14 40.9286ZM14 50.6429L14 55.5L15 55.5L15 50.6429L14 50.6429ZM14 60.3571L14 65.2143L15 65.2143L15 60.3571L14 60.3571ZM14 70.0714L14 74.9286L15 74.9286L15 70.0714L14 70.0714ZM14 79.7857L14 84.6429L15 84.6429L15 79.7857L14 79.7857ZM14 89.5L14 94.3571L15 94.3571L15 89.5L14 89.5ZM14 99.2143L14 104.071L15 104.071L15 99.2143L14 99.2143ZM14 108.929L14 113.786L15 113.786L15 108.929L14 108.929ZM14 118.643L14 123.5L15 123.5L15 118.643L14 118.643ZM14 128.357L14 133.214L15 133.214L15 128.357L14 128.357ZM14 138.071L14 140.5L15 140.5L15 138.071L14 138.071Z" fill="#F5A8C6"/>
<circle cx="14" cy="14" r="14" fill="#F5A8C6"/>
<path d="M22 9L11 20L6 15" stroke="white" stroke-width="2" stroke-linecap="round" stroke-linejoin="round"/>
</svg>
