<svg width="28" height="140" viewBox="0 0 28 140" fill="none" xmlns="http://www.w3.org/2000/svg">
<path d="M14 131.5C14 131.776 14.2239 132 14.5 132C14.7761 132 15 131.776 15 131.5L14 131.5ZM14.8535 0.146447C14.6583 -0.0488155 14.3417 -0.0488155 14.1464 0.146447L10.9645 3.32843C10.7692 3.52369 10.7692 3.84027 10.9645 4.03553C11.1597 4.2308 11.4763 4.2308 11.6716 4.03553L14.5 1.20711L17.3284 4.03553C17.5237 4.2308 17.8403 4.2308 18.0355 4.03553C18.2308 3.84027 18.2308 3.52369 18.0355 3.32843L14.8535 0.146447ZM15 128.981C15 128.705 14.7761 128.481 14.5 128.481C14.2239 128.481 14 128.705 14 128.981L15 128.981ZM14 123.942C14 124.218 14.2239 124.442 14.5 124.442C14.7761 124.442 15 124.218 15 123.942L14 123.942ZM15 118.904C15 118.628 14.7761 118.404 14.5 118.404C14.2239 118.404 14 118.628 14 118.904L15 118.904ZM14 113.865C14 114.142 14.2239 114.365 14.5 114.365C14.7761 114.365 15 114.142 15 113.865L14 113.865ZM15 108.827C15 108.551 14.7761 108.327 14.5 108.327C14.2239 108.327 14 108.551 14 108.827L15 108.827ZM14 103.788C14 104.065 14.2239 104.288 14.5 104.288C14.7761 104.288 15 104.065 15 103.788L14 103.788ZM15 98.75C15 98.4739 14.7761 98.25 14.5 98.25C14.2239 98.25 14 98.4739 14 98.75L15 98.75ZM14 93.7115C14 93.9877 14.2239 94.2115 14.5 94.2115C14.7761 94.2115 15 93.9877 15 93.7115L14 93.7115ZM15 88.6731C15 88.3969 14.7761 88.1731 14.5 88.1731C14.2239 88.1731 14 88.3969 14 88.6731L15 88.6731ZM14 83.6346C14 83.9108 14.2239 84.1346 14.5 84.1346C14.7761 84.1346 15 83.9108 15 83.6346L14 83.6346ZM15 78.5962C15 78.32 14.7761 78.0962 14.5 78.0962C14.2239 78.0962 14 78.32 14 78.5962L15 78.5962ZM14 73.5577C14 73.8338 14.2239 74.0577 14.5 74.0577C14.7761 74.0577 15 73.8338 15 73.5577L14 73.5577ZM15 68.5192C15 68.2431 14.7761 68.0192 14.5 68.0192C14.2239 68.0192 14 68.2431 14 68.5192L15 68.5192ZM14 63.4808C14 63.7569 14.2239 63.9808 14.5 63.9808C14.7761 63.9808 15 63.7569 15 63.4808L14 63.4808ZM15 58.4423C15 58.1662 14.7761 57.9423 14.5 57.9423C14.2239 57.9423 14 58.1662 14 58.4423L15 58.4423ZM14 53.4039C14 53.68 14.2239 53.9039 14.5 53.9039C14.7761 53.9039 15 53.68 15 53.4039L14 53.4039ZM15 48.3654C15 48.0893 14.7761 47.8654 14.5 47.8654C14.2239 47.8654 14 48.0893 14 48.3654L15 48.3654ZM14 43.3269C14 43.6031 14.2239 43.8269 14.5 43.8269C14.7761 43.8269 15 43.6031 15 43.3269L14 43.3269ZM15 38.2885C15 38.0123 14.7761 37.7885 14.5 37.7885C14.2239 37.7885 14 38.0123 14 38.2885L15 38.2885ZM14 33.25C14 33.5262 14.2239 33.75 14.5 33.75C14.7761 33.75 15 33.5262 15 33.25L14 33.25ZM15 28.2116C15 27.9354 14.7761 27.7116 14.5 27.7116C14.2239 27.7116 14 27.9354 14 28.2116L15 28.2116ZM14 23.1731C14 23.4492 14.2239 23.6731 14.5 23.6731C14.7761 23.6731 15 23.4492 15 23.1731L14 23.1731ZM15 18.1346C15 17.8585 14.7761 17.6346 14.5 17.6346C14.2239 17.6346 14 17.8585 14 18.1346L15 18.1346ZM14 13.0962C14 13.3723 14.2239 13.5962 14.5 13.5962C14.7761 13.5962 15 13.3723 15 13.0962L14 13.0962ZM15 8.05772C15 7.78158 14.7761 7.55772 14.5 7.55772C14.2239 7.55772 14 7.78158 14 8.05772L15 8.05772ZM14 3.01926C14 3.2954 14.2239 3.51926 14.5 3.51926C14.7761 3.51926 15 3.2954 15 3.01926L14 3.01926ZM15 131.5L15 128.981L14 128.981L14 131.5L15 131.5ZM15 123.942L15 118.904L14 118.904L14 123.942L15 123.942ZM15 113.865L15 108.827L14 108.827L14 113.865L15 113.865ZM15 103.788L15 98.75L14 98.75L14 103.788L15 103.788ZM15 93.7115L15 88.6731L14 88.6731L14 93.7115L15 93.7115ZM15 83.6346L15 78.5962L14 78.5962L14 83.6346L15 83.6346ZM15 73.5577L15 68.5192L14 68.5192L14 73.5577L15 73.5577ZM15 63.4808L15 58.4423L14 58.4423L14 63.4808L15 63.4808ZM15 53.4039L15 48.3654L14 48.3654L14 53.4039L15 53.4039ZM15 43.3269L15 38.2885L14 38.2885L14 43.3269L15 43.3269ZM15 33.25L15 28.2116L14 28.2116L14 33.25L15 33.25ZM15 23.1731L15 18.1346L14 18.1346L14 23.1731L15 23.1731ZM15 13.0962L15 8.05772L14 8.05772L14 13.0962L15 13.0962ZM15 3.01926L15 0.5L14 0.5L14 3.01926L15 3.01926Z" fill="#F5A8C6"/>
<circle cx="14" cy="126" r="13" fill="white" stroke="#E5E5E5" stroke-width="2"/>
<path d="M22 121L11 132L6 127" stroke="#E5E5E5" stroke-width="2" stroke-linecap="round" stroke-linejoin="round"/>
</svg>
