<svg width="28" height="143" viewBox="0 0 28 143" fill="none" xmlns="http://www.w3.org/2000/svg">
<path d="M14.8536 0.146447C14.6583 -0.0488155 14.3417 -0.0488155 14.1464 0.146447L10.9645 3.32843C10.7692 3.52369 10.7692 3.84027 10.9645 4.03553C11.1597 4.2308 11.4763 4.2308 11.6716 4.03553L14.5 1.20711L17.3284 4.03553C17.5237 4.2308 17.8403 4.2308 18.0355 4.03553C18.2308 3.84027 18.2308 3.52369 18.0355 3.32843L14.8536 0.146447ZM14.5 142.387L17.3868 139.5L14.5 136.613L11.6133 139.5L14.5 142.387ZM14 2.98214C14 3.25829 14.2239 3.48214 14.5 3.48214C14.7761 3.48214 15 3.25829 15 2.98214L14 2.98214ZM15 7.94643C15 7.67029 14.7761 7.44643 14.5 7.44643C14.2239 7.44643 14 7.67029 14 7.94643L15 7.94643ZM14 12.9107C14 13.1869 14.2239 13.4107 14.5 13.4107C14.7761 13.4107 15 13.1869 15 12.9107L14 12.9107ZM15 17.875C15 17.5989 14.7761 17.375 14.5 17.375C14.2239 17.375 14 17.5989 14 17.875L15 17.875ZM14 22.8393C14 23.1154 14.2239 23.3393 14.5 23.3393C14.7761 23.3393 15 23.1154 15 22.8393L14 22.8393ZM15 27.8036C15 27.5274 14.7761 27.3036 14.5 27.3036C14.2239 27.3036 14 27.5274 14 27.8036L15 27.8036ZM14 32.7679C14 33.044 14.2239 33.2679 14.5 33.2679C14.7761 33.2679 15 33.044 15 32.7679L14 32.7679ZM15 37.7321C15 37.456 14.7761 37.2321 14.5 37.2321C14.2239 37.2321 14 37.456 14 37.7321L15 37.7321ZM14 42.6964C14 42.9726 14.2239 43.1964 14.5 43.1964C14.7761 43.1964 15 42.9726 15 42.6964L14 42.6964ZM15 47.6607C15 47.3846 14.7761 47.1607 14.5 47.1607C14.2239 47.1607 14 47.3846 14 47.6607L15 47.6607ZM14 52.625C14 52.9012 14.2239 53.125 14.5 53.125C14.7761 53.125 15 52.9012 15 52.625L14 52.625ZM15 57.5893C15 57.3132 14.7761 57.0893 14.5 57.0893C14.2239 57.0893 14 57.3132 14 57.5893L15 57.5893ZM14 62.5536C14 62.8297 14.2239 63.0536 14.5 63.0536C14.7761 63.0536 15 62.8297 15 62.5536L14 62.5536ZM15 67.5179C15 67.2417 14.7761 67.0179 14.5 67.0179C14.2239 67.0179 14 67.2417 14 67.5179L15 67.5179ZM14 72.4822C14 72.7583 14.2239 72.9822 14.5 72.9822C14.7761 72.9822 15 72.7583 15 72.4822L14 72.4822ZM15 77.4464C15 77.1703 14.7761 76.9464 14.5 76.9464C14.2239 76.9464 14 77.1703 14 77.4464L15 77.4464ZM14 82.4107C14 82.6869 14.2239 82.9107 14.5 82.9107C14.7761 82.9107 15 82.6869 15 82.4107L14 82.4107ZM15 87.375C15 87.0989 14.7761 86.875 14.5 86.875C14.2239 86.875 14 87.0989 14 87.375L15 87.375ZM14 92.3393C14 92.6154 14.2239 92.8393 14.5 92.8393C14.7761 92.8393 15 92.6154 15 92.3393L14 92.3393ZM15 97.3036C15 97.0274 14.7761 96.8036 14.5 96.8036C14.2239 96.8036 14 97.0274 14 97.3036L15 97.3036ZM14 102.268C14 102.544 14.2239 102.768 14.5 102.768C14.7761 102.768 15 102.544 15 102.268L14 102.268ZM15 107.232C15 106.956 14.7761 106.732 14.5 106.732C14.2239 106.732 14 106.956 14 107.232L15 107.232ZM14 112.196C14 112.473 14.2239 112.696 14.5 112.696C14.7761 112.696 15 112.473 15 112.196L14 112.196ZM15 117.161C15 116.885 14.7761 116.661 14.5 116.661C14.2239 116.661 14 116.885 14 117.161L15 117.161ZM14 122.125C14 122.401 14.2239 122.625 14.5 122.625C14.7761 122.625 15 122.401 15 122.125L14 122.125ZM15 127.089C15 126.813 14.7761 126.589 14.5 126.589C14.2239 126.589 14 126.813 14 127.089L15 127.089ZM14 132.054C14 132.33 14.2239 132.554 14.5 132.554C14.7761 132.554 15 132.33 15 132.054L14 132.054ZM15 137.018C15 136.742 14.7761 136.518 14.5 136.518C14.2239 136.518 14 136.742 14 137.018L15 137.018ZM14 0.5L14 2.98214L15 2.98214L15 0.5L14 0.5ZM14 7.94643L14 12.9107L15 12.9107L15 7.94643L14 7.94643ZM14 17.875L14 22.8393L15 22.8393L15 17.875L14 17.875ZM14 27.8036L14 32.7679L15 32.7679L15 27.8036L14 27.8036ZM14 37.7321L14 42.6964L15 42.6964L15 37.7321L14 37.7321ZM14 47.6607L14 52.625L15 52.625L15 47.6607L14 47.6607ZM14 57.5893L14 62.5536L15 62.5536L15 57.5893L14 57.5893ZM14 67.5179L14 72.4822L15 72.4822L15 67.5179L14 67.5179ZM14 77.4464L14 82.4107L15 82.4107L15 77.4464L14 77.4464ZM14 87.375L14 92.3393L15 92.3393L15 87.375L14 87.375ZM14 97.3036L14 102.268L15 102.268L15 97.3036L14 97.3036ZM14 107.232L14 112.196L15 112.196L15 107.232L14 107.232ZM14 117.161L14 122.125L15 122.125L15 117.161L14 117.161ZM14 127.089L14 132.054L15 132.054L15 127.089L14 127.089ZM14 137.018L14 139.5L15 139.5L15 137.018L14 137.018Z" fill="#F5A8C6"/>
<circle cx="14" cy="70" r="14" fill="white"/>
<circle cx="14" cy="70" r="13" stroke="#DCC8D0" stroke-opacity="0.6" stroke-width="2"/>
<path d="M22 64L11 75L6 70" stroke="#E5E5E5" stroke-width="2" stroke-linecap="round" stroke-linejoin="round"/>
</svg>
